<svg xmlns="http://www.w3.org/2000/svg" viewBox="0 0 179.24 59.42"><defs><style>.cls-1{fill:#14c6ef;}</style></defs><title>noel-text</title><g id="Layer_2" data-name="Layer 2"><g id="Layer_1-2" data-name="Layer 1"><path class="cls-1" d="M7.13,7.72H19.37l9.29,21.75,2.88,10.22.29-.07-.15-8.79L34.92,7.72H47.74l-7.13,51h-13L18.87,38.61l-3-10.22-.29.07.15,9.86L12.89,58.7H0Z"/><path class="cls-1" d="M52.27,24.5C54,12.76,65.23,7,75.82,7S96.2,12.83,94.54,24.5L92,41.92c-1.66,11.67-12.53,17.5-23.62,17.5-10.58,0-20.3-5.83-18.65-17.5ZM62.64,41.92c-.5,3.67,3.31,5.55,7.2,5.55,4.18,0,8.71-1.88,9.29-5.91L81.65,24.5c.58-3.82-3-5.76-7.2-5.76s-8.71,1.94-9.29,5.76Z"/><path class="cls-1" d="M113.83,27.45H134.5L132.91,38.9H112.25l-1.08,7.63h22.46L132,58.7H96.48l7.13-51h35.5l-1.73,12.17H114.91Z"/><path class="cls-1" d="M145.94,7.72h13L153.5,46h20.74L172.51,58.7h-33.7Z"/><path d="M12.13.72H24.37l9.29,21.75,2.88,10.22.29-.07-.15-8.79L39.92.72H52.74l-7.13,51h-13L23.87,31.61l-3-10.22-.29.07.15,9.86L17.89,51.7H5Z"/><path d="M57.27,17.5C59,5.76,70.23,0,80.82,0S101.2,5.83,99.54,17.5L97,34.92c-1.66,11.67-12.53,17.5-23.62,17.5-10.58,0-20.3-5.83-18.65-17.5ZM67.64,34.92c-.5,3.67,3.31,5.55,7.2,5.55,4.18,0,8.71-1.88,9.29-5.91L86.65,17.5c.58-3.82-3-5.76-7.2-5.76s-8.71,1.94-9.29,5.76Z"/><path d="M118.83,20.45H139.5L137.91,31.9H117.25l-1.08,7.63h22.46L137,51.7h-35.5l7.13-51h35.5l-1.73,12.17H119.91Z"/><path d="M150.94.72h13L158.5,39h20.74L177.51,51.7h-33.7Z"/></g></g></svg>